<?xml version="1.0" encoding="UTF-8"?>
<svg data-bbox="0.5 0.5 755 322.65" xmlns="http://www.w3.org/2000/svg" viewBox="0 0 756 324" height="324" width="756" data-type="ugc">
    <g>
        <path stroke="#EBEBEB" fill="#ffffff" d="M755.5.5v322.65H.5V.5h755z"/>
        <path fill="#010101" d="M368.188 169.474h25.817v-8.61h-2.836a5.638 5.638 0 0 1-3.771 5.433 5.644 5.644 0 0 1-2.319.303h-3.976v-12.89h4.33v-2.848h-17.245v2.848h4.331v12.865h-4.343l.012 2.899Z"/>
        <path fill="#010101" d="M406.415 169.487h10.053l8.521-15.764h4.267v-2.861h-12.851v2.861h3.709l-6.204 11.484-6.292-11.484h4.507v-2.861h-18.65v2.861h4.267l8.673 15.764Z"/>
        <path fill="#010101" d="M316.77 150.862h-18.651v2.861h4.267l8.673 15.764h10.053l8.522-15.764h4.279v-2.861h-12.864v2.861h3.723l-6.217 11.484-6.293-11.484h4.52l-.012-2.861Z"/>
        <path fill="#010101" d="M336.408 160.244c0 5.483 4.419 9.838 13.282 9.838s13.219-4.355 13.219-9.838c0-5.482-4.634-9.724-13.269-9.724-8.636 0-13.232 4.267-13.232 9.724Zm17.84 0c-.063 3.381-1.456 6.914-4.71 6.85-3.254-.063-4.533-3.545-4.482-7.014.051-3.47 1.785-6.711 4.735-6.66 2.951.05 4.521 3.228 4.457 6.824Z"/>
        <path fill="#010101" d="M431.736 160.244c0 5.483 4.407 9.838 13.27 9.838s13.231-4.355 13.231-9.838c0-5.482-4.647-9.724-13.282-9.724s-13.219 4.267-13.219 9.724Zm13.384-6.786c2.95 0 4.507 3.241 4.444 6.824 0 3.381-1.456 6.914-4.698 6.85-3.241-.063-4.545-3.545-4.482-7.014.063-3.47 1.773-6.762 4.736-6.711v.051Z"/>
        <path fill="#010101" d="m466.075 100.988-10.8 10.8a91.305 91.305 0 0 1-81.576 140.729 91.305 91.305 0 0 1-66.045-148.651 91.303 91.303 0 0 1 120.639-19.11l10.8-10.8a106.457 106.457 0 0 0-166.989 92.201 106.459 106.459 0 1 0 193.971-65.169Z"/>
        <path fill="#010101" d="M432.053 59.243v2.976a113.451 113.451 0 0 1 18.144 12.256l-15.194 15.194a90.483 90.483 0 0 1 15.371 15.358l15.194-15.194a118.127 118.127 0 0 1 12.294 18.081h2.912v-48.67h-48.721Z"/>
    </g>
</svg>
